<mxfile host="Electron" agent="Mozilla/5.0 (Macintosh; Intel Mac OS X 10_15_7) AppleWebKit/537.36 (KHTML, like Gecko) draw.io/24.7.5 Chrome/126.0.6478.183 Electron/31.3.0 Safari/537.36" version="24.7.5">
  <diagram name="第 1 页" id="GdgqU-z8m976deFMdYSt">
    <mxGraphModel dx="954" dy="727" grid="0" gridSize="10" guides="1" tooltips="1" connect="1" arrows="1" fold="1" page="1" pageScale="1" pageWidth="827" pageHeight="1169" background="#FFFFFF" math="0" shadow="0">
      <root>
        <mxCell id="0" />
        <mxCell id="1" parent="0" />
        <mxCell id="9fI22MFXiNzgc23bok_m-1" value="" style="aspect=fixed;sketch=0;html=1;dashed=0;whitespace=wrap;verticalLabelPosition=bottom;verticalAlign=top;fillColor=#2875E2;strokeColor=#ffffff;points=[[0.005,0.63,0],[0.1,0.2,0],[0.9,0.2,0],[0.5,0,0],[0.995,0.63,0],[0.72,0.99,0],[0.5,1,0],[0.28,0.99,0]];shape=mxgraph.kubernetes.icon2;prIcon=user" parent="1" vertex="1">
          <mxGeometry x="110" y="290" width="50" height="48" as="geometry" />
        </mxCell>
        <mxCell id="9fI22MFXiNzgc23bok_m-5" value="" style="html=1;verticalLabelPosition=bottom;align=center;labelBackgroundColor=#ffffff;verticalAlign=top;strokeWidth=2;strokeColor=#6c8ebf;shadow=0;dashed=0;shape=mxgraph.ios7.icons.message;rotation=-180;fillColor=#dae8fc;gradientColor=#7ea6e0;" parent="1" vertex="1">
          <mxGeometry x="140" y="338" width="235" height="45.5" as="geometry" />
        </mxCell>
        <mxCell id="9fI22MFXiNzgc23bok_m-6" value="&lt;font color=&quot;#000000&quot; style=&quot;font-size: 15px;&quot; face=&quot;Times New Roman&quot;&gt;Can you introduce calcVal for me?&lt;/font&gt;" style="text;html=1;align=left;verticalAlign=middle;whiteSpace=wrap;rounded=0;" parent="1" vertex="1">
          <mxGeometry x="152.5" y="346.75" width="217.5" height="23.25" as="geometry" />
        </mxCell>
        <mxCell id="n4iepXyc-rqoR7vtr88l-1" value="" style="image;aspect=fixed;html=1;points=[];align=center;fontSize=12;image=img/lib/azure2/ai_machine_learning/Batch_AI.svg;" vertex="1" parent="1">
          <mxGeometry x="639" y="591" width="48" height="68" as="geometry" />
        </mxCell>
        <mxCell id="n4iepXyc-rqoR7vtr88l-2" value="" style="html=1;verticalLabelPosition=bottom;align=center;labelBackgroundColor=#ffffff;verticalAlign=top;strokeWidth=4;strokeColor=#6c8ebf;shadow=0;dashed=0;shape=mxgraph.ios7.icons.message;rotation=0;fillColor=#dae8fc;gradientColor=#7ea6e0;" vertex="1" parent="1">
          <mxGeometry x="400" y="410" width="260" height="167.5" as="geometry" />
        </mxCell>
        <mxCell id="n4iepXyc-rqoR7vtr88l-3" value="&lt;font color=&quot;#000000&quot; style=&quot;font-size: 15px;&quot; face=&quot;Times New Roman&quot;&gt;Sure. calcVal is one of the skill-outputs-related functions available in ADE. It&#39;s used to get the output value as calibration from one test and pass it on to subsequent tests. Here below is the doc link:&lt;/font&gt;&lt;div&gt;&lt;font color=&quot;#000000&quot; style=&quot;font-size: 15px;&quot; face=&quot;Times New Roman&quot;&gt;www.wiki.com/calcval&lt;/font&gt;&lt;/div&gt;" style="text;html=1;align=left;verticalAlign=middle;whiteSpace=wrap;rounded=0;" vertex="1" parent="1">
          <mxGeometry x="410" y="400" width="250" height="170" as="geometry" />
        </mxCell>
      </root>
    </mxGraphModel>
  </diagram>
</mxfile>
